/* XPM */
static char *magick[] = {
/* columns rows colors chars-per-pixel */
"32 32 246 2",
"   c #03030b",
".  c #090903",
"X  c #050515",
"o  c #080813",
"O  c #131305",
"+  c #111108",
"@  c #1f1f19",
"#  c #02022a",
"$  c #090929",
"%  c #000035",
"&  c #02023b",
"*  c #13133e",
"=  c #191926",
"-  c #232306",
";  c #24241e",
":  c #292915",
">  c #3b3b11",
",  c #2c2c31",
"<  c #000042",
"1  c #0e0e45",
"2  c #03035c",
"3  c #0c0c50",
"4  c #16164a",
"5  c #15155a",
"6  c #000064",
"7  c #04046d",
"8  c #010174",
"9  c #00007d",
"0  c #1e1e64",
"q  c #121279",
"w  c #262646",
"e  c #2c2c51",
"r  c #373751",
"t  c #272769",
"y  c #2a2a6b",
"u  c #242478",
"i  c #313163",
"p  c #363677",
"a  c #444400",
"s  c #484800",
"d  c #5d5d01",
"f  c #565603",
"g  c #59591a",
"h  c #4a4a31",
"j  c #47472b",
"k  c #646400",
"l  c #6e6e03",
"z  c #67670b",
"x  c #787805",
"c  c #6a6a53",
"v  c #7a7a52",
"b  c #000083",
"n  c #02028d",
"m  c #090987",
"M  c #030392",
"N  c #00009d",
"B  c #19199b",
"V  c #0303a3",
"C  c #0101ac",
"Z  c #0a0aa8",
"A  c #0101b2",
"S  c #0000b9",
"D  c #0000be",
"F  c #0c0cb9",
"G  c #1414ab",
"H  c #1c1cb3",
"J  c #1414b8",
"K  c #2e2e83",
"L  c #323298",
"P  c #2a2aa8",
"I  c #2f2fb4",
"U  c #2727bc",
"Y  c #3d3dac",
"T  c #3c3cbc",
"R  c #0000c2",
"E  c #0000cf",
"W  c #0e0eca",
"Q  c #0e0ec0",
"!  c #0f0fd0",
"~  c #0606db",
"^  c #1616c5",
"/  c #1919da",
"(  c #0909e9",
")  c #0f0ff4",
"_  c #1c1ce6",
"`  c #1818f9",
"'  c #2828c5",
"]  c #2020de",
"[  c #2b2bdb",
"{  c #3535c2",
"}  c #3333cb",
"|  c #3b3bcb",
" . c #3939c6",
".. c #3c3cdb",
"X. c #3636d6",
"o. c #2828e7",
"O. c #2727ff",
"+. c #2c2cfc",
"@. c #2929f4",
"#. c #3737e9",
"$. c #3d3dfb",
"%. c #3131f8",
"&. c #4a4a8f",
"*. c #49499c",
"=. c #565693",
"-. c #575798",
";. c #5c5c99",
":. c #4545ac",
">. c #4b4ba4",
",. c #4c4cac",
"<. c #4646a3",
"1. c #4343ba",
"2. c #4d4db2",
"3. c #4d4dba",
"4. c #5151ac",
"5. c #5d5da2",
"6. c #5b5bb4",
"7. c #5555b1",
"8. c #656595",
"9. c #7f7f9f",
"0. c #7e7e94",
"q. c #6c6cb3",
"w. c #6c6cb8",
"e. c #7c7ca5",
"r. c #6767a8",
"t. c #4444c6",
"y. c #4c4cd8",
"u. c #5656c3",
"i. c #5d5dce",
"p. c #5555db",
"a. c #4040f7",
"s. c #4444ff",
"d. c #4b4bf3",
"f. c #4c4cfc",
"g. c #5252ff",
"h. c #5b5bff",
"j. c #6666cd",
"k. c #6060d0",
"l. c #6262e6",
"z. c #6464ff",
"x. c #6c6cf7",
"c. c #6e6efe",
"v. c #6161f1",
"b. c #7979e8",
"n. c #7474ff",
"m. c #7a7aff",
"M. c #838302",
"N. c #8f8f00",
"B. c #949401",
"V. c #9c9c00",
"C. c #9c9c1e",
"Z. c #a4a400",
"A. c #acac00",
"S. c #b4b400",
"D. c #bcbc00",
"F. c #b7b70a",
"G. c #9a9a4d",
"H. c #8f8f7f",
"J. c #b2b25a",
"K. c #a8a874",
"L. c #b0b07f",
"P. c #c3c300",
"I. c #cbcb00",
"U. c #d3d300",
"Y. c #dcdc00",
"T. c #d8d817",
"R. c #d5d520",
"E. c #d7d736",
"W. c #e3e300",
"Q. c #ecec00",
"!. c #ecec0b",
"~. c #f1f100",
"^. c #f6f601",
"/. c #f6f60b",
"(. c #f9f900",
"). c #fdfd02",
"_. c #fdfd0b",
"`. c #fefe13",
"'. c #f8f81c",
"]. c #ebeb3d",
"[. c #ffff25",
"{. c #fcfc2a",
"}. c #fefe34",
"|. c #ffff3b",
" X c #c2c274",
".X c #dada6d",
"XX c #eded4c",
"oX c #fefe43",
"OX c #ffff4e",
"+X c #fefe59",
"@X c #ffff55",
"#X c #f6f669",
"$X c #fefe62",
"%X c #848493",
"&X c #8a8a93",
"*X c #8f8f99",
"=X c #83839b",
"-X c #9d9d84",
";X c #909097",
":X c #93939b",
">X c #9a9a9e",
",X c #8484a4",
"<X c #8787a7",
"1X c #8f8fb4",
"2X c #9595a2",
"3X c #9696af",
"4X c #9d9da2",
"5X c #9696bf",
"6X c #9999ba",
"7X c #a5a585",
"8X c #a4a4a5",
"9X c #aeaeae",
"0X c #a5a5a9",
"qX c #b1b1af",
"wX c #b2b2b1",
"eX c #b6b6b5",
"rX c #b5b5b3",
"tX c #b8b8b7",
"yX c #b9b9b8",
"uX c Gray74",
"iX c #8d8dcc",
"pX c #9999cc",
"aX c #8c8ce3",
"sX c #8484ff",
"dX c #8d8dff",
"fX c #8b8bf7",
"gX c #9b9bfe",
"hX c #9696ff",
"jX c #ababcb",
"kX c #b5b5c4",
"lX c #bbbbcf",
"zX c #a9a9e2",
"xX c #a3a3e8",
"cX c #a6a6ff",
"vX c #acacff",
"bX c #b6b6f4",
"nX c #b1b1ff",
"mX c #bcbcff",
"MX c #babaf5",
"NX c #dede88",
"BX c #e0e089",
"VX c #e3e393",
"CX c #c1c1c1",
"ZX c #c3c3fc",
"AX c #c8c8fc",
"SX c #d0d0ff",
/* pixels */
"CXCXCXCXCXCXCXCXCXCXkXuXtXeXwXwXwXwXeXyXuXCXCXCXCXCXCXCXCXCXCXCX",
"CXCXCXCXCXCXCXCXuXeXqX8X>X;X&X&X&X&X;X4X8XwXyXuXCXCXCXCXCXCXCXCX",
"CXCXCXCXCXCXuXyX9X>X%X8.*.:.1.t.t.t.1.,.5.=X4X9XyXuXCXCXCXCXCXCX",
"CXCXCXCXCXuXwX8X0.-.<.2.3.1.T T { { | X.X.{ 4.,X8XeXuXCXCXCXCXCX",
"CXCXCXCXuXqX>X8.>.4.&.p u B G F F F Q ^ ^ ' [ { r.4XwXuXCXCXCXCX",
"CXCXCXuXqX*X;.2.,.p * ; ; 2 N A S D D C n m G ] [ 6.2XwXuXCXCXCX",
"CXCXuXrX>X;.2.>.y $ + k N.> 8 S D R C 9 < # 1 V _ o.6.4XeXuXCXCX",
"CXCXtX8X8.,.>.t # O k V.S.S.& C R D n &   s d * C o.#.q.8XyXCXCX",
"CXuX9X0.>.<.t # O k V.S.I.Y.z 6 S C 6 o a V.A.x * A @...<X9XuXCX",
"CXtX>X-.2.K & O k V.D.U.Q.~.Y.g 9 9 % O N.A.P.U.B.4 W +.u.4XtXCX",
"CX9X%X:.Y q $ d Z.D.U.Q.(.(.~.D.# %   d A.I.W.~.!.C.L @.#.<XwXCX",
"uX8X8.1.P M 6 = l U.Q.^.(.).^.W.l O k Z.P.W._.{.|.].=.@.s.w.8XuX",
"yX>X>.T G V N b 1 M.~.).(.).(.Q.U.Z.S.P.W./.|.+X$XH.} $.h.k.4XyX",
"eX;X:.I Z V C A N 3 x W.^.(.(.^.Q.Y.Y.W./.}.+XL.6...%.f.c.l.:XeX",
"wX&X1.H C C A S R C 7 $ B.W.^.(.^.^.~./.[.oXK.| $.$.s.h.sXx.;XwX",
"wX&X{ H C A S D D A b % - P.Q.).).)._.`.{.G.P d.g.g.h.n.dXm.*XwX",
"qX&X' J A S S A M 7 &   l I.Q.)._._.`.`.T.j 0 :.p.v.c.sXgXsX;XwX",
"wX&XU J S S C b < X . d A.U.~.`.'.`._.).(.W.l = i 4.b.gXcXfX;XwX",
"eX&XI ^ S C 9 &   a M.Z.D.W.`.{.E.R.).).(.~.W.D.f , 8.xXvXaX:XeX",
"yX4XY ^ A b &   a B.Z.P.Y./.}.XXp w S.(.^.~.Q.Y.U.F.v pXnXiX4XyX",
"uX8X;.^ A 6 o a B.A.P.W.^.}.@XK. .P @ W.~.^.(./.'.]. XjXvX1X8XuX",
"CXwX=X' F 8 : B.S.I.W.(.[.OX#X,.d.y.e M.Q.(.`.|.+XNXkXMXxX:X9XCX",
"CXyX4X,.! V 4 x I.Q.(.`.|.$X7Xy.h.l.*.: Y.(.{.$XVXlXZXmX5X4XeXCX",
"CXuX9X9.' ~ C 5 g D.).[.OX#X6.f.z.c.j.r x _.oXBXlXZXSXzX2X9XuXCX",
"CXkXyX8Xr./ ( E N w F.[.OX7Xy.g.z.n.b.5.h T..XkXZXSXbX3X8XtXCXCX",
"CXCXCXeX4X7._ ) ( S u c J.4.a.g.z.m.sXaXe.-XkXZXSXMX6X>XwXuXCXCX",
"CXCXCXuXwX2X6.o.` ` ( W Y X.s.h.c.sXhXcXbXbXZXAXbX6X>X9XuXCXCXCX",
"CXCXCXCXuXwX4Xq.X.O.O.+.$.f.h.n.sXgXvXmXZXZXmXzX3X>X9XuXCXCXCXCX",
"CXCXCXCXCXuXeX8X,Xu.#.s.g.c.m.dXgXcXvXnXnXxX5X2X8XwXuXCXCXCXCXCX",
"CXCXCXCXCXCXuXyX9X4X,Xw.i.l.x.m.sXfXaXiX1X2X4X9XtXuXCXCXCXCXCXCX",
"CXCXCXCXCXCXCXCXuXtXwX0X4X:X;X*X;X;X:X4X8X9XeXuXCXCXCXCXCXCXCXCX",
"CXCXCXCXCXCXCXCXCXCXCXuXyXeXwXwXwXwXeXyXuXCXCXCXCXCXCXCXCXCXCXCX"
};
